<?xml version="1.0" standalone="no"?>
<!DOCTYPE svg PUBLIC "-//W3C//DTD SVG 20010904//EN"
 "http://www.w3.org/TR/2001/REC-SVG-20010904/DTD/svg10.dtd">
<svg version="1.0" xmlns="http://www.w3.org/2000/svg"
 width="1200.000000pt" height="1307.000000pt" viewBox="0 0 1200.000000 1307.000000"
 preserveAspectRatio="xMidYMid meet">

<g transform="translate(0.000000,1307.000000) scale(0.100000,-0.100000)"
fill="#252B33" stroke="none">
<path d="M5835 12591 c-82 -14 -203 -50 -258 -78 -105 -53 -4504 -2597 -4563
-2638 -160 -114 -299 -320 -371 -551 l-28 -89 0 -2690 0 -2690 28 -100 c58
-210 180 -402 337 -529 44 -36 213 -141 405 -252 1841 -1065 4151 -2397 4193
-2418 224 -113 621 -112 847 1 81 41 4443 2561 4518 2610 81 54 197 165 257
248 64 87 127 220 158 332 l27 98 0 2685 0 2685 -23 85 c-28 101 -93 244 -152
330 -52 76 -163 194 -233 248 -48 37 -4435 2575 -4556 2637 -99 50 -229 77
-391 80 -80 2 -167 0 -195 -4z m634 -2506 c954 -134 1747 -595 2356 -1370 92
-116 265 -367 265 -383 0 -9 -1479 -871 -1520 -886 -10 -4 -25 9 -45 41 -114
182 -320 401 -495 525 -183 130 -441 242 -666 288 -713 147 -1463 -164 -1856
-770 -214 -330 -332 -778 -299 -1136 58 -637 422 -1173 991 -1463 641 -327
1360 -252 1916 200 102 83 283 277 357 382 34 49 67 96 73 105 10 14 113 -43
770 -423 418 -241 765 -444 773 -451 11 -10 5 -26 -37 -96 -451 -747 -1158
-1302 -1973 -1548 -376 -113 -707 -156 -1134 -147 -264 5 -433 24 -670 73
-927 194 -1744 736 -2249 1494 -46 69 -93 143 -104 165 -81 153 -197 398 -235
495 -259 660 -332 1394 -206 2058 163 859 641 1617 1354 2145 520 385 1169
640 1795 706 58 6 119 13 135 15 77 11 596 -3 704 -19z m2151 -2562 c0 -16 -9
-109 -20 -208 -11 -99 -20 -190 -20 -202 0 -23 0 -23 170 -23 94 0 170 3 170
8 0 17 41 409 46 430 4 22 7 22 150 22 l145 0 -5 -32 c-3 -18 -12 -103 -21
-188 -8 -85 -18 -174 -21 -197 l-5 -43 135 0 136 0 0 -140 0 -140 -144 0 c-80
0 -147 -4 -150 -9 -5 -8 -46 -364 -46 -398 0 -10 32 -13 125 -13 l125 0 0
-140 0 -140 -139 0 -140 0 -6 -42 c-8 -66 -45 -427 -45 -449 0 -18 -8 -19
-150 -19 -82 0 -150 2 -150 4 0 2 11 106 25 232 14 126 25 239 25 251 l0 23
-167 -2 -168 -3 -27 -250 c-14 -137 -27 -251 -27 -252 -1 -2 -66 -3 -146 -3
-144 0 -145 0 -145 23 0 12 11 123 25 247 14 124 25 228 25 233 0 4 -58 7
-130 7 l-130 0 0 140 0 140 144 0 145 0 5 43 c11 80 36 326 36 352 l0 25 -125
0 -125 0 0 140 0 140 145 0 c144 0 145 0 145 23 0 12 9 115 21 230 l22 207
144 0 143 0 0 -27z"/>
<path d="M8545 6778 c-8 -49 -35 -326 -35 -360 l0 -28 167 2 168 3 21 200 c12
110 19 203 17 208 -2 4 -78 7 -168 7 l-164 0 -6 -32z"/>
</g>
</svg>
