<?xml version="1.0" standalone="no"?>
<!DOCTYPE svg PUBLIC "-//W3C//DTD SVG 20010904//EN"
 "http://www.w3.org/TR/2001/REC-SVG-20010904/DTD/svg10.dtd">
<svg version="1.0" xmlns="http://www.w3.org/2000/svg"
 width="1200.000000pt" height="1200.000000pt" viewBox="0 0 1200.000000 1200.000000"
 preserveAspectRatio="xMidYMid meet">

<g transform="translate(0.000000,1200.000000) scale(0.100000,-0.100000)"
fill="#252B33" stroke="none">
<path d="M0 6000 l0 -6000 6000 0 6000 0 0 6000 0 6000 -6000 0 -6000 0 0
-6000z m4043 700 c274 -437 616 -982 759 -1210 225 -359 259 -409 253 -370 -3
25 -9 570 -11 1213 l-5 1167 245 0 246 0 0 -1560 0 -1560 -277 2 -278 3 -733
1155 c-403 635 -749 1190 -770 1232 -20 43 -39 78 -42 78 -3 0 -2 -35 2 -77 3
-43 7 -599 7 -1235 l1 -1158 -245 0 -245 0 0 1560 0 1560 297 -2 297 -3 499
-795z m3797 580 l0 -220 -565 0 -565 0 0 -440 0 -440 520 0 520 0 0 -220 0
-220 -520 0 -520 0 0 -460 0 -460 600 0 600 0 0 -220 0 -220 -855 0 -855 0 0
1560 0 1560 820 0 820 0 0 -220z m2498 3 l-3 -218 -437 -3 -438 -2 0 -1340 0
-1340 -255 0 -255 0 0 1340 0 1340 -435 0 -435 0 0 220 0 220 1130 0 1130 0
-2 -217z m-8088 -2382 c70 -27 130 -78 165 -142 26 -47 30 -64 30 -134 0 -63
-5 -89 -23 -122 -32 -60 -86 -111 -151 -142 -76 -35 -192 -36 -263 -2 -172 83
-228 288 -118 439 77 107 232 151 360 103z"/>
</g>
</svg>
