<?xml version="1.0" standalone="no"?>
<!DOCTYPE svg PUBLIC "-//W3C//DTD SVG 20010904//EN"
 "http://www.w3.org/TR/2001/REC-SVG-20010904/DTD/svg10.dtd">
<svg version="1.0" xmlns="http://www.w3.org/2000/svg"
 width="1200.000000pt" height="1200.000000pt" viewBox="0 0 1200.000000 1200.000000"
 preserveAspectRatio="xMidYMid meet">

<g transform="translate(0.000000,1200.000000) scale(0.100000,-0.100000)"
fill="#252B33" stroke="none">
<path d="M5817 11855 c-402 -76 -706 -354 -823 -750 -36 -125 -44 -356 -16
-488 l18 -89 -20 -13 c-12 -7 -556 -322 -1209 -699 l-1189 -686 -46 44 c-77
74 -152 125 -257 176 -180 88 -370 122 -559 101 -142 -16 -231 -42 -361 -106
-268 -131 -451 -351 -541 -651 -36 -120 -45 -348 -19 -475 53 -265 188 -482
397 -639 90 -68 232 -141 326 -166 l62 -17 0 -1397 0 -1396 -73 -23 c-621
-197 -910 -909 -603 -1487 307 -577 1064 -729 1575 -317 46 37 89 72 96 77 8
6 374 -200 1126 -634 613 -354 1155 -667 1205 -696 l90 -53 -18 -88 c-22 -110
-24 -292 -3 -400 76 -402 367 -714 764 -821 84 -22 117 -25 256 -26 133 0 175
3 248 22 414 104 720 436 787 854 17 107 8 321 -18 418 -11 41 -19 76 -18 76
0 1 540 313 1199 693 l1198 691 67 -61 c372 -342 906 -381 1319 -97 84 58 211
188 266 271 56 84 122 230 147 322 31 114 38 329 16 448 -72 382 -349 697
-711 808 l-75 23 0 1396 0 1397 63 17 c93 25 235 98 326 166 180 136 307 323
377 555 26 84 28 103 28 275 0 159 -3 196 -21 262 -34 119 -81 224 -145 319
-289 432 -849 587 -1313 365 -103 -50 -192 -110 -264 -179 l-50 -48 -1208 697
c-664 383 -1209 697 -1209 698 -1 1 7 42 17 91 23 111 25 292 4 402 -76 403
-369 717 -764 820 -123 32 -327 40 -444 18z m-551 -1770 c13 -13 -176 -345
-1562 -2747 -868 -1503 -1581 -2737 -1585 -2741 -4 -5 -16 -6 -28 -2 l-21 6 0
1399 0 1399 48 15 c373 112 644 409 724 796 17 79 19 120 15 240 -3 81 -12
168 -20 198 -14 48 -14 54 1 63 71 44 2399 1387 2405 1388 5 1 15 -6 23 -14z
m2654 -658 c619 -357 1155 -667 1192 -688 l66 -39 -15 -52 c-24 -84 -29 -315
-9 -421 73 -385 335 -684 709 -806 l67 -23 0 -1398 0 -1399 -21 -6 c-14 -5
-25 -2 -30 6 -4 8 -716 1240 -1582 2739 -1432 2479 -1573 2727 -1559 2742 12
14 19 15 36 6 11 -6 527 -304 1146 -661z m-2128 377 c102 -23 309 -23 416 0
46 10 86 16 88 13 3 -3 715 -1235 1584 -2738 l1578 -2734 -47 -50 c-99 -107
-173 -231 -220 -370 l-30 -90 -3161 0 -3161 0 -30 90 c-48 141 -123 267 -229
380 l-38 40 1581 2738 c870 1505 1585 2737 1589 2737 3 0 40 -7 80 -16z m3371
-6471 c3 -5 8 -22 11 -38 l7 -31 -1199 -692 c-660 -381 -1202 -692 -1206 -692
-4 0 -30 23 -59 50 -304 294 -778 369 -1162 186 -100 -48 -189 -108 -260 -175
l-48 -45 -46 27 c-417 236 -2366 1368 -2369 1376 -2 7 -1 18 2 26 5 13 397 15
3165 15 1738 0 3162 -3 3164 -7z"/>
</g>
</svg>
