<?xml version="1.0" standalone="no"?>
<!DOCTYPE svg PUBLIC "-//W3C//DTD SVG 20010904//EN"
 "http://www.w3.org/TR/2001/REC-SVG-20010904/DTD/svg10.dtd">
<svg version="1.0" xmlns="http://www.w3.org/2000/svg"
 width="512.000000pt" height="512.000000pt" viewBox="0 0 512.000000 512.000000"
 preserveAspectRatio="xMidYMid meet">

<g transform="translate(0.000000,512.000000) scale(0.100000,-0.100000)"
fill="#252B33" stroke="none">
<path d="M1733 5108 c29 -77 627 -1853 627 -1863 0 -7 -21 -20 -47 -30 -250
-96 -423 -349 -423 -620 0 -174 67 -332 195 -462 l81 -83 -44 -57 c-160 -208
-425 -419 -657 -523 -79 -35 -80 -35 -158 49 -97 105 -140 238 -118 363 12 70
19 78 81 102 130 50 266 178 331 311 51 105 72 190 72 300 0 443 -429 762
-851 634 -168 -51 -326 -186 -400 -340 -44 -91 -72 -206 -72 -294 0 -139 58
-303 145 -409 l48 -59 -28 -56 c-70 -141 -150 -325 -185 -427 -180 -521 -107
-1037 189 -1333 208 -208 510 -323 810 -308 287 13 527 94 1076 362 642 313
771 359 1195 421 390 56 560 109 735 227 142 96 279 261 345 415 100 234 100
506 -1 747 l-30 73 30 59 c16 33 37 88 47 124 23 86 23 244 1 329 -56 209
-218 388 -419 461 l-56 21 188 557 c103 306 247 728 318 939 l130 382 -1580 0
c-1260 0 -1579 -3 -1575 -12z m2737 -292 c0 -7 -530 -1569 -533 -1573 -2 -1
-18 -4 -36 -5 l-33 -3 -274 560 c-151 308 -278 563 -282 566 -4 4 -131 -244
-282 -550 -151 -306 -277 -560 -281 -565 -4 -5 -23 -6 -41 -2 l-34 6 -262 778
c-144 427 -262 780 -262 785 0 7 2320 10 2320 3z m-1003 -1435 l151 -309 -45
-54 c-52 -63 -121 -195 -129 -249 l-7 -39 -117 0 -118 0 -7 33 c-13 61 -93
212 -143 267 l-49 55 151 303 c83 166 153 302 156 302 3 0 74 -139 157 -309z
m-2315 -443 c75 -35 147 -104 184 -175 26 -53 29 -67 29 -163 0 -94 -3 -111
-27 -161 -36 -72 -105 -141 -176 -176 -51 -25 -67 -28 -162 -28 -87 0 -113 4
-153 22 -70 33 -149 113 -183 186 -26 54 -29 73 -29 157 0 82 4 103 26 151 47
99 128 171 232 205 67 22 190 13 259 -18z m1508 16 c270 -80 353 -419 148
-610 -27 -25 -74 -57 -106 -72 -49 -23 -70 -27 -152 -27 -82 0 -103 4 -152 27
-74 34 -152 112 -186 186 -23 49 -27 70 -27 147 0 76 4 99 26 146 81 172 268
257 449 203z m1582 -17 c79 -39 143 -104 181 -185 72 -154 22 -353 -114 -451
-132 -96 -323 -95 -452 3 -96 73 -156 211 -143 330 11 110 77 219 166 276 73
47 123 60 220 57 70 -2 95 -7 142 -30z m-794 -529 c3 -13 25 -62 49 -111 76
-151 220 -273 388 -329 59 -19 91 -23 200 -23 138 0 185 10 287 61 l47 24 16
-52 c43 -145 26 -319 -47 -468 -58 -121 -176 -238 -301 -299 -110 -53 -262
-92 -489 -126 -487 -71 -620 -115 -1203 -397 -407 -197 -562 -267 -698 -312
-303 -101 -554 -102 -760 -1 -200 98 -319 242 -378 460 -19 67 -23 107 -23
255 -1 187 9 261 61 424 21 67 166 404 191 443 5 8 19 8 54 -1 l48 -12 4 -139
c3 -145 18 -210 68 -310 77 -151 251 -316 385 -367 66 -25 395 134 610 295
136 103 327 294 418 419 l70 97 96 0 c286 2 520 160 626 422 l28 69 123 0
c120 0 124 -1 130 -22z"/>
</g>
</svg>
